<?xml version="1.0" encoding="utf-8"?>
<!-- Generator: Adobe Illustrator 15.1.0, SVG Export Plug-In . SVG Version: 6.00 Build 0)  -->
<!DOCTYPE svg PUBLIC "-//W3C//DTD SVG 1.1//EN" "http://www.w3.org/Graphics/SVG/1.1/DTD/svg11.dtd">
<svg version="1.1" id="achtergrond" xmlns="http://www.w3.org/2000/svg" xmlns:xlink="http://www.w3.org/1999/xlink" x="0px"
	 y="0px" width="240px" height="217.936px" viewBox="0 0 240 217.936" enable-background="new 0 0 240 217.936"
	 xml:space="preserve">
<g>
	<path fill="#FFFFFF" d="M85.395,217.936c-6.429,0-13.196-2.145-18.566-5.883l-0.107-0.075l-0.1-0.083
		c-4.357-3.626-5.233-9.564-5.516-14.895l-0.036-0.685l0.262-0.634c0.622-1.505,0.34-3.443,0.014-5.688
		c-0.366-2.524-0.774-5.335,0.02-8.269l-3.362-5.527l-0.113-0.426c-0.553-2.094-0.714-4.365-0.87-6.561
		c-0.229-3.242-0.467-6.591-2.007-8.177c-10.164-7.108-20.124-15.306-25.845-27.024c-0.72,10.946-4.089,18.567-10.398,23.704
		l-0.084,0.068l-0.089,0.063c-0.212,0.149-0.428,0.303-0.647,0.459c-2.276,1.625-5.108,3.647-8.767,3.647c0,0,0,0-0.001,0
		c-1.242,0-2.481-0.243-3.684-0.724L0,159.033l4.991-3.182c1.086-0.692,2.191-1.267,3.26-1.823c1.928-1.002,3.748-1.949,4.853-3.326
		c2.816-3.623,1.716-7.579-0.435-13.66c-0.856-2.42-1.74-4.921-2.121-7.415c-1.447-7.095,0.049-13.893,4.447-20.231
		c-2.95-6.635-4.472-14.648-4.771-25.013l-0.004-0.152l0.011-0.152c1.409-19.689,5.412-44.22,24.015-59.334
		c7.795-6.929,15.544-13.521,24.576-18.057C66.569,2.188,76.918,0,90.455,0c10.293,0,21.11,1.246,30.655,2.345
		c2.958,0.341,5.754,0.663,8.451,0.941c6.165,0.049,10.203,2.916,13.769,5.447c2.42,1.718,4.708,3.342,7.506,3.971
		c4.158,0.268,8.605,0.291,12.457,0.291l4.22-0.003c12.754,0,24.037,0.376,32.92,4.989c7.917,3.767,10.588,11.355,13.172,18.695
		c1.081,3.072,2.104,5.979,3.486,8.578c0.907,1.07,1.87,2.15,2.804,3.196c5.041,5.65,10.755,12.054,11.526,21.782l0.023,0.3
		l-0.218,1.819c-1.328,11.012-2.979,24.717,2.608,31.937l0.101,0.13l0.086,0.141c5.528,9.017,5.979,20.956,5.979,34.494l0,0.053
		c-0.263,14.868-5.138,26.682-9.852,38.105c-0.387,0.937-0.773,1.873-1.156,2.808c-2.559,5.972-6.226,10.859-9.773,15.585
		c-2.56,3.411-4.978,6.634-6.983,10.198l-0.11,0.196l-0.138,0.178c-0.954,1.227-3.855,4.961-9.098,4.961
		c-0.794,0-1.623-0.085-2.465-0.253l-0.396-0.079l-0.361-0.181c-2.233-1.111-3.62-3.317-3.62-5.758v-0.717l0.274-0.549
		c-0.148-0.082-0.304-0.163-0.432-0.23c-1.292-0.678-3.692-1.938-3.974-4.832c-0.08-0.734-0.086-1.415-0.032-2.043
		c-2.867,2.384-5.965,4.654-9.854,6.186c-2.227,1.032-4.873,1.555-7.864,1.555c-3.925,0-8.168-0.921-11.605-2.495
		c-0.245,0.03-0.5,0.044-0.768,0.044c-0.603,0-1.198-0.076-1.723-0.142c-0.396-0.051-0.805-0.103-1.084-0.103h-0.147l-0.147-0.014
		c-10.846-1.057-18.823-8.966-23.068-22.874l-0.132-0.433v-0.453c0-3.505,0.355-7.66,2.568-11.207
		c-7.321-2.848-14.808-5.821-20.695-11.09c0.056,0.922,0.098,1.847,0.141,2.766c0.068,1.5,0.133,2.918,0.255,4.278
		c0.276,2.187,1.607,3.893,3.148,5.866c2.272,2.911,5.1,6.535,4.306,12.291l-0.065,0.467l-0.203,0.426
		c-3.218,6.735-9.724,8.947-16.039,9.69c1.094,3.066,1.5,6.337,1.1,9.317l-0.008,0.057c-1.333,8.677-8.757,12.894-15.075,15.598
		l-0.127,0.051C91.86,217.377,88.697,217.936,85.395,217.936z M186.634,139.314c0.161,4.008,1.436,7.256,2.785,10.692
		c1.016,2.588,2.066,5.264,2.686,8.359l0.115,0.573l-0.107,0.575c-0.286,1.545-0.714,3.249-1.168,5.051
		c-1.66,6.598-3.726,14.808,0.514,18.706l0.092,0.088c2.103,2.103,3.64,4.42,4.567,6.888l0.138,0.368
		c3.033-1.288,4.827-4.464,6.723-7.822c0.366-0.649,0.729-1.29,1.095-1.909c3.151-8.631,5.244-16.339,5.251-25.748
		c-0.285-8.258-2.192-13.269-5.967-15.564c-1.725,1.202-3.412,1.791-5.116,1.791c-3.589,0-5.97-2.537-8.072-4.775
		c-1.318-1.404-2.351-2.45-3.361-3.012L186.634,139.314z"/>
	<path d="M36.21,27.059C20.17,40.055,14.918,61.07,13.257,84.297c0.279,9.681,1.662,18.253,5.252,25.439
		c-3.87,4.981-6.635,11.342-4.974,19.359c1.104,7.466,7.739,16.04,1.935,23.505c-2.213,2.76-5.809,3.871-8.848,5.809
		c4.147,1.656,7.465-1.109,10.23-3.049c7.465-6.077,9.679-16.034,9.405-27.928c0.547-0.545,0.547-1.656,1.378-2.208l1.661,0.828
		c4.422,14.662,15.761,24.335,27.653,32.634c3.875,3.589,2.487,11.061,3.875,16.311l3.869,6.36
		c-2.213,5.257,1.383,10.785-0.557,15.483c0.278,5.256,1.108,9.961,4.426,12.722c6.361,4.428,16.313,7.196,25.166,3.871
		c5.805-2.484,12.166-6.08,13.27-13.27c0.557-4.146-0.826-8.574-2.766-11.618c8.022-0.275,14.936-1.932,17.974-8.293
		c1.107-8.018-6.635-10.507-7.465-17.419c-0.552-6.085,0-13.274-3.039-17.698c2.208,0.275,3.039,3.312,4.7,4.976
		c6.635,8.017,17.144,11.342,26.823,15.211c-3.596,2.76-4.7,6.913-4.7,12.441c3.039,9.955,9.124,19.636,20.461,20.74
		c1.383,0,3.043,0.552,3.872,0c4.702,2.49,12.719,3.87,17.975,1.385c4.976-1.937,8.571-5.257,12.442-8.574
		c-0.83-2.209-2.209-4.148-3.871-5.81c-6.913-6.355-1.659-19.078-0.275-26.544c-1.383-6.913-5.255-11.893-5.531-19.635l0.276-9.126
		c8.572-1.656,10.234,13.827,19.081,5.81c7.189,2.765,9.125,10.782,9.403,19.076c0,10.513-2.489,18.807-5.533,27.108
		c-2.487,4.145-4.698,9.397-9.677,11.334c-1.661,0.552-2.489,2.209-2.213,4.7c0.279,3.042,6.361,2.214,4.148,6.637
		c0,1.38,0.828,2.489,1.937,3.042c4.145,0.828,6.637-1.104,8.571-3.594c4.979-8.853,12.445-15.766,16.593-25.444
		c4.978-12.165,10.508-24.328,10.782-39.817c0-12.163-0.273-24.333-5.531-32.907c-6.634-8.573-4.423-24.058-3.039-35.673
		c-0.833-10.507-8.022-16.589-13.827-23.502c-4.979-9.124-5.531-21.57-15.487-26.27c-12.72-6.637-32.077-3.874-48.668-4.981
		c-8.02-1.656-11.614-9.397-21.016-9.397c-21.57-2.213-51.158-7.468-69.132,3.039C51.418,13.785,43.675,20.422,36.21,27.059z"/>
	<path fill="#F5919D" d="M33.444,36.738c-13.553,17.144-22.953,51.155-9.126,73.28c-4.973,4.976-8.295,12.993-5.809,21.016
		l1.939,7.465l0.826-0.829c0.279-9.126,0-18.807,7.47-22.4l1.104,1.104c4.148,14.383,12.996,26.273,24.335,34.842
		c8.848,3.324,10.23,13.273,11.061,22.952c1.378,0,0.274,1.656,1.104,1.933l3.317,5.256c-1.93,2.492-0.826,7.189,0.279,9.681
		c-0.279,4.698-2.208,11.335,1.661,14.655c1.93,0.276,2.765,1.937,4.422,2.213c0.552-1.385,1.661-2.766,3.317-3.317
		c1.939-0.552,4.705-0.276,6.087,1.104c1.104,1.109,2.208,1.937,2.487,3.87c3.043,0.828,1.661-3.042,2.487-4.422
		c1.939-1.387,2.765-3.596,6.087-2.767c1.935-0.276,2.487,3.043,4.421,2.215c3.317-1.94-2.487-4.424,0.552-6.361l1.94-0.552
		c-2.765-7.749-8.574-13.274-8.574-22.678l-1.383-9.122c-3.317-3.877-3.596-11.335-1.104-15.764c1.104-4.148,1.93-8.576,1.93-13.274
		c-11.608-8.569-23.779-17.422-34.566-27.376c-4.974-3.871-6.078-11.89-4.422-18.802c0-3.594-2.492-5.255-3.039-8.293
		c2.487,1.656,5.252,4.424,5.53,8.017c-1.661,14.103,10.23,20.188,18.248,27.653c5.535,4.148,10.787,8.569,17.144,11.89
		c-2.487-5.528-6.635-9.95-9.679-15.207c-1.656-3.596-3.869-6.914-4.974-11.061c8.569,8.017,16.035,18.25,21.292,29.309l5.252,1.939
		c-2.487-11.342-1.383-25.168,0.552-37.057l0.557,0.552c1.656,9.404,0.826,21.015,1.935,30.972l1.657,4.428l0.83-0.283
		c1.109-9.122,2.766-18.524,3.044-27.648l0.552,0.274c3.044,4.979,3.875,13.271,1.935,19.356c-2.213,9.122-1.104,19.911,5.53,24.611
		c7.466,6.637,18.253,8.85,27.653,12.446c4.148,1.381,6.362,5.25,7.192,9.398c-0.28,1.109-1.662,1.661-2.766,2.213
		c-1.66-1.656-1.937-4.145-3.596-5.802c-2.489-1.111-4.423,0.276-5.808,1.932c-1.935,6.085,0.275,12.998,3.873,17.144
		c1.104-1.38,3.594-1.661,5.252-1.104c2.765,1.381,2.214,4.424,2.765,7.189c2.212,1.104,6.914,1.38,8.849-0.275
		c0-1.109-1.935-2.766-2.766-1.109c-0.828,0.276-1.104,2.214-2.21,1.109c0.276-1.662,1.659-3.325,3.042-4.146
		c1.935-0.559,2.489,0.545,3.32,1.38l0.828,2.208c1.935-0.276,3.043-1.38,4.424-2.208c-3.042-7.472-0.552-15.766,1.937-22.12
		c1.382-6.637,2.486-16.87-3.044-20.739l-9.124-7.196c-4.423-0.552-7.189,2.216-9.679,4.705c-0.831-0.552-2.765-0.277-2.765-1.938
		c0.828-3.872,4.702-5.809,8.02-7.189c-1.935-0.276-2.489-4.148-5.534-2.209c-5.528,1.933-11.336,3.589-16.59,6.63
		c0.552-3.317,3.873-4.698,5.808-6.913c3.042-1.656,6.085-3.318,9.402-4.698c-7.743-2.216-14.657,1.657-20.187,4.98
		c-1.658,1.657-3.596,3.313-5.53,4.698c1.106-7.465,7.191-12.17,13.826-14.103c6.914-2.766,16.039-1.109,22.401,0.828
		c1.655,0.552,1.934-0.828,3.039-1.104c-9.124-5.257-14.654-14.102-18.526-23.781c-2.213,3.318-5.531,7.742-10.509,6.914
		c-6.358-4.147-7.742-12.722-14.101-16.594c-6.083-4.146-16.04-5.255-15.761-15.207c1.657-6.914,9.4-9.126,11.062-15.764
		c2.763-6.361,6.356-13.274,14.928-13.274c2.768-1.104,5.809,0.831,8.574-0.276c3.32-8.846,9.679-17.698,19.633-19.633
		c11.892-1.107,17.975,6.913,23.783,13.826c-8.573-1.935-13.552-11.339-24.889-9.124c-7.189,2.487-11.613,9.679-14.654,16.037
		c3.869,2.487,8.848,3.594,14.102,3.875c0.828,0.552-0.555,0.552-0.555,1.104c-4.699,3.593-11.888,1.659-17.419,0.276
		c-3.042-0.276-5.807,0-6.913,2.213c-3.593,6.358-2.213,16.311-7.742,21.292c-3.044,3.039-6.913,5.252-12.443,4.7
		c5.252,3.041,11.334,4.981,15.761,9.678c2.763,4.148,4.979,8.574,8.296,12.444c2.213-0.552,3.596-2.487,4.7-4.151
		c2.49-6.358,4.703-12.72,8.021-18.248c1.658-3.596,2.486-7.741,1.934-12.72c3.042,1.659,3.32,7.744,2.768,10.783
		c-1.937,6.639-6.913,14.379-3.043,22.677c3.317,8.293,9.402,15.763,17.975,19.083c9.679,4.698,22.953,3.594,29.587,12.438
		l0.831-0.552c-1.935-4.428-5.808-7.465-8.297-11.618c-3.593,0.276-5.805-1.656-8.294-3.589c-0.277-1.109,0.83-1.385,1.106-2.212
		c2.211,1.104,5.807,1.932,8.296,0.552c1.382-0.552,2.214-2.768,3.871-1.933c0.552,1.104,2.488,1.381,1.383,2.761
		c-0.552,1.385-2.765,1.662-1.383,3.594c4.979,8.576,14.658,13.55,18.805,22.955c5.805,16.591-1.108,33.178-6.913,45.9
		c-2.214,3.043-4.149,7.189-8.299,8.017c-0.275,2.768,3.042,1.111,3.596,3.325c0.829,1.932-1.382,3.864,0.829,4.7
		c4.702-3.044,5.808-9.405,10.233-12.999c9.678-11.613,14.102-26.824,17.974-42.307c1.106-11.337,1.106-24.887-1.383-35.118
		c-5.807-9.128-10.785-20.739-8.296-34.566c4.976-14.103-5.254-21.848-12.168-30.144c-4.7-9.679-5.806-23.505-18.25-26.27
		c-9.954-2.487-22.399-1.659-34.29-1.935c-6.085,1.935-11.613,4.978-16.313,9.128c1.104-4.981,6.358-8.024,9.676-9.957
		c-3.593,1.104-6.636-2.766-9.124,0.552c-3.042,2.763-6.637,5.531-9.402,9.124l-0.829-0.274c1.657-4.979,5.252-9.126,9.4-12.443
		c-1.104-1.939-3.595-3.044-5.806-4.426c-13.272-3.596-29.312-3.87-44.521-4.979C64.136,7.148,48.102,21.25,33.444,36.738z"/>
	<path fill="#F5919D" d="M110.872,74.896v0.555c4.7,0.828,7.741-1.109,10.506-3.322c5.254-3.591,1.659-13.827,5.531-18.526
		C118.89,58.303,119.441,70.194,110.872,74.896z"/>
	<path d="M172.536,93.702l-0.277-3.043c-1.381,0.552-1.933,1.939-2.212,3.32c0.552,1.104,1.383,2.213,2.212,3.042
		c4.702-0.829,6.36,2.492,10.233,2.492l4.702-1.388c1.38,1.659,2.211,3.32,3.317,4.982c-0.276-1.662-1.659-4.705-0.276-6.638
		c-0.831-0.555-1.383,0.276-1.935,0.552c-2.491-0.829-3.596-3.87-6.913-2.489c-0.554-0.276-0.554-0.829-0.554-1.104
		c1.106,0,0.275-1.109,1.382-0.829c3.042-0.835,4.148,1.933,6.637,0.829c-1.934-1.383-2.768-4.148-5.531-4.148
		C178.896,89.554,177.512,96.743,172.536,93.702z"/>
	<path fill="#F5919D" d="M170.599,140.431c1.107,1.664,2.768,2.491,4.149,4.153c7.191,5.528,3.871,21.292,1.661,29.033
		c-2.489,4.147-2.489,11.336,0,15.489c1.658,0.545,0,1.932,0,2.761c-0.831,2.49-3.596,3.041-5.254,4.429
		c1.104,1.38,3.319,0.269,4.976,0.269l2.214-0.545c-0.831-1.663-0.277-4.152,0.552-5.256c0.554-1.111,1.66-1.657,3.319-1.38
		c1.659,0,2.489,1.38,3.594,2.208c0.554-0.275,2.213-1.104,1.109-2.208c-2.214-4.152-4.979-8.025-5.257-13.826
		c-0.552-6.644,3.32-10.79,3.043-17.427c-2.765-5.252-2.489-12.717-6.637-17.139C175.856,140.431,171.429,134.905,170.599,140.431z"
		/>
	<path fill="#F5919D" d="M98.98,138.774c-0.279,7.465-3.591,14.102-3.044,21.292c4.426,6.637,0.831,16.87,5.53,23.231
		c1.94,0.552,5.257,0.829,6.914-0.283c0.278-1.932,0.278-4.146,2.492-4.974c2.487-0.552,4.148,0.828,4.979,2.213
		c1.104-0.552,1.935-1.938,1.935-3.042c-2.213-4.147-5.53-7.465-7.192-11.889c-0.83-5.533,0.831-12.447-1.935-16.592l-3.87-7.741
		C102.576,140.431,101.188,139.326,98.98,138.774z"/>
	<path fill="#F5919D" d="M110.872,181.909v0.828c1.656,0.559,1.935-0.828,3.039-1.104
		C114.189,179.149,110.593,180.253,110.872,181.909z"/>
	<path fill="#F5919D" d="M150.69,188.822c-0.275,1.664,1.938,1.664,2.214,2.768l1.104-0.275
		C153.733,189.926,152.904,187.442,150.69,188.822z"/>
	<path fill="#F5919D" d="M180.004,192.694l0.552,2.213c1.659,0,2.765-0.828,3.596-1.656
		C183.873,191.314,180.833,191.038,180.004,192.694z"/>
	<path fill="#F5919D" d="M92.897,207.078v1.38c1.657,0,2.766-0.829,4.422-1.657c0.278-0.28-0.826-1.109-1.104-1.385
		C94.276,204.037,93.728,206.521,92.897,207.078z"/>
	<path fill="#F5919D" d="M79.345,209.01l0.278,0.552c1.939-0.277,2.765,0.828,4.7,0.283c0.278-1.111-1.104-1.111-1.656-2.216
		C81.285,207.629,79.902,207.906,79.345,209.01z"/>
</g>
</svg>
